<?xml version="1.0" encoding="UTF-8"?>
<svg id="Layer_3" data-name="Layer 3" xmlns="http://www.w3.org/2000/svg" viewBox="0 0 500 500">
  <defs>
    <style>
      .cls-1 {
        fill: #fff;
      }

      .cls-2 {
        fill: #242423;
      }
    </style>
  </defs>
  <g>
    <path class="cls-2" d="m205.28,306.39v110.2s25.21-.03,33.13,0c34.48.15,14.97-31.1-18.93-22.99,0,0-7.44-70.99-.68-87.21h-13.52Z"/>
    <path class="cls-1" d="m202.55,419.33v-115.67h20.35l-1.58,3.78c-5.07,12.17-1.55,61.33.57,82.87,16.03-2.85,28.87,2.66,34.28,9.37,3.12,3.86,3.91,8.15,2.17,11.77-1.73,3.6-6.55,7.87-19.68,7.87-.09,0-.17,0-.26,0-7.82-.03-32.86,0-33.11,0h-2.73Zm23.77-5.48c4.91,0,9.47,0,12.1.02,7.93.02,13.55-1.75,15-4.78,1.08-2.24-.48-4.7-1.5-5.97-4.71-5.84-16.67-10.48-31.81-6.85l-3.03.72-.32-3.1c-.29-2.74-6.55-63.38-1.64-84.77h-7.11v104.74c3.93,0,11.46-.01,18.31-.01Z"/>
  </g>
  <g>
    <path class="cls-2" d="m280.69,306.39v110.2s25.21-.03,33.13,0c34.48.15,14.97-31.1-18.93-22.99,0,0-7.44-70.99-.68-87.21h-13.52Z"/>
    <path class="cls-1" d="m277.96,419.33v-115.67h20.35l-1.58,3.78c-5.07,12.17-1.55,61.33.57,82.87,16.03-2.85,28.87,2.66,34.28,9.37,3.12,3.86,3.91,8.15,2.17,11.77-1.73,3.6-6.55,7.87-19.68,7.87-.09,0-.17,0-.26,0-7.82-.03-32.86,0-33.11,0h-2.73Zm23.77-5.48c4.91,0,9.47,0,12.1.02,7.93.01,13.55-1.75,15-4.78,1.08-2.24-.48-4.7-1.5-5.97-4.71-5.84-16.67-10.47-31.81-6.85l-3.03.72-.32-3.1c-.29-2.74-6.55-63.38-1.64-84.77h-7.11v104.74c3.93,0,11.46-.01,18.31-.01Z"/>
  </g>
  <g>
    <path class="cls-2" d="m334.37,157.73c3.11,14.51,12.41,212.85,4.95,197.77-18.07-36.53-32.84-8.04-37.32-18.52-5.91-13.86-39,15.75-42.08,3.85-4.23-16.37-33.91,7.6-35.97-1.74-4.45-20.17-29.77,5.06-34.29-4.04-10.56-21.26-31.73,14.53-31.8,14.36-2.07-75.56,129.2-412.34,176.5-191.67Z"/>
    <path class="cls-1" d="m340.05,359.49c-1.04,0-2.52-.44-3.58-2.58-10.54-21.3-18.72-18.23-25.29-15.77-3.5,1.31-9.36,3.51-12.1-2.92-.44-1.04-1-1.37-1.48-1.56-3.49-1.37-11.49,2.21-17.92,5.09-7.9,3.53-14.72,6.59-19.26,4.4-1.25-.6-2.88-1.88-3.57-4.53-.51-1.97-1.37-2.62-1.96-2.94-3.27-1.74-10.42.8-16.16,2.84-6.44,2.29-11.52,4.1-15.05,2.14-1.02-.57-2.34-1.7-2.83-3.9-.57-2.6-1.55-4.28-2.89-5-3.03-1.62-8.76.6-13.83,2.57-6.63,2.57-14.15,5.49-17.31-.87-2.38-4.8-4.67-4.93-5.43-4.97-4.87-.31-12.49,6.83-20.44,19.03-.58.88-1.44,2.23-3.37,2.05l-2.82-.25-.08-2.83c-.79-28.89,17.44-94.51,42.41-152.64,17.82-41.49,53-111.74,88.36-115.97,23.08-2.76,40.6,22.87,52.02,76.19h0c1.69,7.87,4.61,60.27,6.28,104.28.69,18.26,1.53,44.37,1.57,65.02.02,9.26-.13,16.53-.43,21.58-.5,8.18-1.25,10.51-3.68,11.36-.18.06-.61.19-1.17.19Zm-21.27-26.46c6.21,0,12.87,3.24,19.8,14.5.7-12.05.63-39.91-1.33-89.98-1.82-46.43-4.62-92.77-5.99-99.16h0c-7.3-34.07-21.06-74.07-45.05-71.2-23.17,2.78-54.3,44.71-83.27,112.17-21.97,51.15-38.66,107.91-41.49,139.54,6.04-7.62,13.34-14.19,20.32-13.77,4.47.26,8.09,3.12,10.75,8.5.57,1.16,6.48-1.13,9.31-2.23,6.34-2.46,13.52-5.25,19.13-2.24,3,1.61,5.04,4.63,6.05,8.99,1.67.2,6.39-1.48,9.59-2.62,7.28-2.59,15.53-5.52,21.28-2.47,2.57,1.36,4.3,3.71,5.14,6.96.08.3.16.39.16.39,1.52,1.07,9.9-2.67,13.92-4.47,8.29-3.71,16.86-7.54,22.84-5.2,2.26.89,4,2.61,5.01,4.99.14.32.25.48.3.55.63.06,2.48-.63,3.72-1.09,3.12-1.17,6.4-2.15,9.82-2.15Z"/>
  </g>
  <g>
    <ellipse class="cls-2" cx="258.93" cy="155.45" rx="24.2" ry="10.56" transform="translate(33.88 356.86) rotate(-72.81)"/>
    <path class="cls-1" d="m253.2,180.15c-.63,0-1.24-.09-1.83-.27-6.39-1.98-8.07-14.25-3.83-27.95,1.97-6.35,4.91-12.01,8.28-15.92,3.63-4.21,7.42-5.98,10.66-4.98,6.39,1.98,8.07,14.25,3.83,27.95h0c-1.97,6.35-4.91,12.01-8.28,15.92-2.97,3.44-6.04,5.25-8.83,5.25Zm11.46-46.67c-1.96,0-4.37,1.51-6.77,4.3-3.14,3.64-5.89,8.95-7.74,14.95-3.98,12.86-2.12,23.25,2.03,24.53,2.11.65,4.95-.86,7.79-4.15,3.14-3.64,5.89-8.95,7.74-14.95h0c3.98-12.86,2.12-23.25-2.03-24.53-.32-.1-.66-.15-1.02-.15Z"/>
  </g>
  <g>
    <ellipse class="cls-2" cx="301.13" cy="160.61" rx="24.2" ry="10.56" transform="translate(97 434.12) rotate(-81.34)"/>
    <path class="cls-1" d="m298.2,185.96c-.31,0-.62-.02-.92-.07-6.61-1.01-10.1-12.9-7.94-27.07,1-6.57,3.07-12.6,5.83-16.98,2.97-4.71,6.45-7.01,9.81-6.51,3.36.51,6,3.75,7.43,9.13,1.33,5,1.51,11.37.51,17.94-1,6.57-3.07,12.6-5.83,16.98-2.7,4.28-5.82,6.58-8.89,6.58Zm5.87-47.96c-2.07,0-4.45,1.9-6.59,5.3-2.56,4.06-4.49,9.72-5.44,15.93-2.03,13.3,1.35,23.31,5.65,23.96,2.19.34,4.77-1.58,7.09-5.26,2.56-4.06,4.49-9.72,5.44-15.93.95-6.21.79-12.19-.45-16.83-1.12-4.2-3.01-6.8-5.2-7.13-.16-.02-.33-.04-.5-.04Z"/>
  </g>
  <g>
    <path class="cls-1" d="m210.13,289.28s65.95-160.04,93.7,6.67c0,0-34.89-66.49-93.7-6.67Z"/>
    <path class="cls-1" d="m307.35,306.4l-5.07-9.63c-.14-.27-14.28-26.65-38.92-30.28-16.44-2.42-33.93,5.66-51.98,24.02l-6.29,6.4,3.42-8.29c1.24-3,30.62-73.44,59.55-70.17,16.9,1.92,29.17,27.18,37.5,77.22l1.79,10.74Zm-49.74-43.84c2.11,0,4.21.15,6.29.46,17.93,2.65,30.37,15.98,36.69,24.63-7.8-41.49-19.13-64.16-32.92-65.72-20.88-2.38-43.66,41.42-52.31,59.94,14.42-12.84,28.58-19.31,42.25-19.31Z"/>
  </g>
  <rect class="cls-1" x="256.45" y="125.61" width="2.73" height="60.26" transform="translate(-36.71 92.68) rotate(-19.05)"/>
  <rect class="cls-1" x="228.2" y="152.61" width="61.32" height="2.73" transform="translate(-17.15 274.53) rotate(-54.34)"/>
  <rect class="cls-1" x="298.07" y="129.74" width="2.73" height="65.22" transform="translate(-33.26 89.34) rotate(-16.09)"/>
  <rect class="cls-1" x="275.14" y="158.25" width="56.43" height="2.73" transform="translate(7.35 332.49) rotate(-58.04)"/>
  <rect class="cls-1" x="299.11" y="304.64" width="16.11" height="3.51" transform="translate(-110.72 189.77) rotate(-29.33)"/>
  <rect class="cls-1" x="203.53" y="287.16" width="3.51" height="15.44" transform="translate(-149.95 240.98) rotate(-46.53)"/>
</svg>